<!DOCTYPE svg PUBLIC "-//W3C//DTD SVG 1.1//EN" "http://www.w3.org/Graphics/SVG/1.1/DTD/svg11.dtd">
<!-- Uploaded to: SVG Repo, www.svgrepo.com, Transformed by: SVG Repo Mixer Tools -->
<svg height="64px" width="64px" version="1.1" id="Layer_1" xmlns="http://www.w3.org/2000/svg" xmlns:xlink="http://www.w3.org/1999/xlink" viewBox="0 0 512 512" xml:space="preserve" fill="#000000">
<g id="SVGRepo_bgCarrier" stroke-width="0"/>
<g id="SVGRepo_tracerCarrier" stroke-linecap="round" stroke-linejoin="round"/>
<g id="SVGRepo_iconCarrier"> <path style="fill:#9E9E9E;" d="M476.132,194.11H35.868c-13.594,0-24.615,11.021-24.615,24.615v248.967 c0,13.594,11.021,24.615,24.615,24.615h440.264c13.594,0,24.615-11.021,24.615-24.615V218.725 C500.747,205.131,489.726,194.11,476.132,194.11z"/> <g> <path style="fill:#231F20;" d="M476.132,182.857h-61.187v-32.633c0-24.199-19.687-43.886-43.886-43.886H167.385 c-11.79,0-21.38-9.591-21.38-21.38V19.692c0-6.214-5.038-11.253-11.253-11.253c-6.215,0-11.253,5.039-11.253,11.253v65.266 c0,24.199,19.687,43.886,43.886,43.886h203.675c11.789,0,21.38,9.591,21.38,21.38v32.633H35.868C16.09,182.857,0,198.947,0,218.725 v248.967c0,19.778,16.09,35.868,35.868,35.868h440.264c19.778,0,35.868-16.09,35.868-35.868V218.725 C512,198.947,495.91,182.857,476.132,182.857z M489.495,467.692c0,7.368-5.994,13.363-13.363,13.363H35.868 c-7.368,0-13.363-5.994-13.363-13.363V218.725c0-7.368,5.994-13.363,13.363-13.363h440.264c7.368,0,13.363,5.994,13.363,13.363 V467.692z"/> <path style="fill:#231F20;" d="M79.895,430.418H61.89c-6.215,0-11.253,5.039-11.253,11.253s5.038,11.253,11.253,11.253h18.004 c6.215,0,11.253-5.039,11.253-11.253S86.109,430.418,79.895,430.418z"/> <path style="fill:#231F20;" d="M310.378,430.418h-31.929c-6.215,0-11.253,5.039-11.253,11.253s5.038,11.253,11.253,11.253h31.929 c6.215,0,11.253-5.039,11.253-11.253S316.593,430.418,310.378,430.418z"/> <path style="fill:#231F20;" d="M233.551,430.418h-31.929c-6.215,0-11.253,5.039-11.253,11.253s5.038,11.253,11.253,11.253h31.929 c6.215,0,11.253-5.039,11.253-11.253S239.766,430.418,233.551,430.418z"/> <path style="fill:#231F20;" d="M387.206,430.418h-31.929c-6.215,0-11.253,5.039-11.253,11.253s5.038,11.253,11.253,11.253h31.929 c6.215,0,11.253-5.039,11.253-11.253S393.421,430.418,387.206,430.418z"/> <path style="fill:#231F20;" d="M156.723,430.418h-31.929c-6.215,0-11.253,5.039-11.253,11.253s5.038,11.253,11.253,11.253h31.929 c6.215,0,11.253-5.039,11.253-11.253S162.938,430.418,156.723,430.418z"/> <path style="fill:#231F20;" d="M450.11,430.418h-18.004c-6.215,0-11.253,5.039-11.253,11.253s5.038,11.253,11.253,11.253h18.004 c6.215,0,11.253-5.039,11.253-11.253S456.325,430.418,450.11,430.418z"/> <path style="fill:#231F20;" d="M237.229,381.187c-6.215,0-11.253,5.039-11.253,11.253s5.038,11.253,11.253,11.253h31.929 c6.215,0,11.253-5.039,11.253-11.253s-5.038-11.253-11.253-11.253H237.229z"/> <path style="fill:#231F20;" d="M203.582,392.44c0-6.214-5.038-11.253-11.253-11.253H61.89c-6.215,0-11.253,5.039-11.253,11.253 s5.038,11.253,11.253,11.253h130.44C198.545,403.692,203.582,398.653,203.582,392.44z"/> <path style="fill:#231F20;" d="M314.057,381.187c-6.215,0-11.253,5.039-11.253,11.253s5.038,11.253,11.253,11.253h31.929 c6.215,0,11.253-5.039,11.253-11.253s-5.038-11.253-11.253-11.253H314.057z"/> <path style="fill:#231F20;" d="M434.356,403.692h13.503c6.215,0,11.253-5.039,11.253-11.253s-5.038-11.253-11.253-11.253h-13.503 c-6.215,0-11.253,5.039-11.253,11.253S428.141,403.692,434.356,403.692z"/> <path style="fill:#231F20;" d="M61.89,354.462h242.876c6.215,0,11.253-5.039,11.253-11.253s-5.038-11.253-11.253-11.253H61.89 c-6.215,0-11.253,5.039-11.253,11.253S55.675,354.462,61.89,354.462z"/> <path style="fill:#231F20;" d="M436.607,354.462h9.002c6.215,0,11.253-5.039,11.253-11.253s-5.038-11.253-11.253-11.253h-9.002 c-6.215,0-11.253,5.039-11.253,11.253S430.392,354.462,436.607,354.462z"/> <path style="fill:#231F20;" d="M368.809,293.978c0-6.214-5.038-11.253-11.253-11.253H61.89c-6.215,0-11.253,5.039-11.253,11.253 s5.038,11.253,11.253,11.253h295.666C363.771,305.231,368.809,300.192,368.809,293.978z"/> <path style="fill:#231F20;" d="M438.857,305.231h4.501c6.215,0,11.253-5.039,11.253-11.253s-5.038-11.253-11.253-11.253h-4.501 c-6.215,0-11.253,5.039-11.253,11.253S432.642,305.231,438.857,305.231z"/> <path style="fill:#231F20;" d="M450.11,233.495H61.89c-6.215,0-11.253,5.039-11.253,11.253c0,6.214,5.038,11.253,11.253,11.253 h388.22c6.215,0,11.253-5.039,11.253-11.253C461.363,238.533,456.325,233.495,450.11,233.495z"/> </g> </g>
</svg>